<svg xmlns="http://www.w3.org/2000/svg" width="26" height="26"><g transform="translate(0 -1026.362)"><circle cx="13" cy="1039.362" r="13" fill="#50b748" fill-rule="evenodd"/><path style="line-height:normal;text-indent:0;text-align:start;text-decoration-line:none;text-decoration-style:solid;text-decoration-color:#000;text-transform:none;block-progression:tb;isolation:auto;mix-blend-mode:normal" fill="#10a711" d="M15.54 25.736a13 13 0 0 0 .937-.21 13 13 0 0 0 1.234-.409 13 13 0 0 0 1.185-.531 13 13 0 0 0 1.127-.647 13 13 0 0 0 1.057-.755 13 13 0 0 0 .977-.858 13 13 0 0 0 .886-.951 13 13 0 0 0 .786-1.035 13 13 0 0 0 .68-1.108 13 13 0 0 0 .433-.898l-8.488-8.488a.5.5 44.999 0 0 .146-.344L24.998 18a13 13 0 0 0 .002-.008l-8.5-8.5a.5.5 44.999 0 0-.104-.31l8.659 8.658a13 13 0 0 0 .002-.006l-8.703-8.703-2.993-2.985A.5.5 44.999 0 0 13 6a.5.5 44.999 0 0-.346.146l-3.006 3a.5.5 44.999 0 0 .356.854l1.297 1.297v4.205a.5.5 44.999 0 0 .5.5l.996.996h-.994a.5.5 0 1 0 0 .998l1.002 1.002h-1.002a.5.5 0 0 0 0 1l1 1h-1a.501.501 0 0 0 0 1.002l3.736 3.736z" color="#000" font-family="sans-serif" font-weight="400" transform="translate(0 1026.362)"/><path style="line-height:normal;text-indent:0;text-align:start;text-decoration-line:none;text-decoration-style:solid;text-decoration-color:#000;text-transform:none;block-progression:tb;isolation:auto;mix-blend-mode:normal" fill="#fff" d="M11.749 1040.601a.469.469 44.999 0 0-.137-.338l-2.805-2.798a.469.469 44.999 0 0-.663 0l-2.82 2.812a.469.469 44.999 0 0 .333.802h1.216v5.158a.469.469 44.999 0 0 .469.47H9.26a.469.469 44.999 0 0 .468-.47v-5.165h1.553a.469.469 44.999 0 0 .467-.461zm-1.598-.472h-.275a.469.469 44.999 0 0-.011 0l-.612.015a.469.469 44.999 0 0-.46.467v5.156h-.98v-5.156a.469.469 44.999 0 0-.464-.469h-.28a.469.469 44.999 0 0-.01 0h-.267l1.684-1.679 1.674 1.67zm-.41 7.974a.469.469 0 0 0-.477-.463h-1.92a.469.469 0 1 0 0 .937h1.92a.469.469 0 0 0 .476-.476zm0 1.875a.469.469 0 0 0-.477-.461h-1.92a.469.469 0 1 0 0 .937h1.92a.469.469 0 0 0 .476-.476zm0 1.875a.469.469 0 0 0-.477-.461h-1.92a.47.47 0 1 0 0 .939h1.92a.469.469 0 0 0 .476-.476z" color="#000" font-family="sans-serif" font-weight="400" overflow="visible" transform="translate(3.97 -73.863) scale(1.06642)"/></g></svg>